<?xml version="1.0" encoding="utf-8"?>
<!-- Generator: Adobe Illustrator 23.0.0, SVG Export Plug-In . SVG Version: 6.00 Build 0)  -->
<svg version="1.1" id="图层_1" xmlns="http://www.w3.org/2000/svg" xmlns:xlink="http://www.w3.org/1999/xlink" x="0px" y="0px"
	 viewBox="0 0 500 100" style="enable-background:new 0 0 500 100;" xml:space="preserve">
<style type="text/css">
	.st0{fill:#FF2B06;}
	.st1{fill:#040000;}
</style>
<g>
	<path class="st0" d="M6.13,87.96l-4.37-6.3h4.17l2.34,3.47l2.32-3.47h4.04l-4.37,6.23l4.92,7.08h-4.17l-2.78-4.19l-2.78,4.19H1.34
		L6.13,87.96z"/>
	<path class="st1" d="M32.48,87.08h-13v-2.75h13V87.08z M32.48,92.59h-13v-2.75h13V92.59z"/>
	<path class="st1" d="M42.44,79.59h-3.65v-3.01h3.65V79.59z M38.78,81.65h3.65v13.3h-3.65V81.65z"/>
	<path class="st1" d="M44.8,81.65h3.47v1.85h0.08c0.93-1.49,2.52-2.21,4.07-2.21c3.89,0,4.86,2.19,4.86,5.48v8.18h-3.65v-7.51
		c0-2.19-0.64-3.27-2.34-3.27c-1.98,0-2.83,1.11-2.83,3.81v6.97H44.8V81.65z"/>
	<path class="st1" d="M69.04,93.26h-0.05c-0.85,1.44-2.34,2.06-4.04,2.06c-4.01,0-5.97-3.45-5.97-7.13c0-3.58,1.98-6.9,5.89-6.9
		c1.57,0,3.11,0.67,3.96,1.98h-0.03h0.05v-6.69h3.65v18.37h-3.47V93.26z M65.85,84.05c-2.39,0-3.22,2.06-3.22,4.25
		c0,2.08,0.95,4.27,3.22,4.27c2.42,0,3.14-2.11,3.14-4.3C68.99,86.1,68.22,84.05,65.85,84.05z"/>
	<path class="st1" d="M77.77,89.19c0.1,2.32,1.24,3.37,3.27,3.37c1.47,0,2.65-0.9,2.88-1.72h3.22c-1.03,3.14-3.22,4.48-6.23,4.48
		c-4.19,0-6.79-2.88-6.79-7c0-3.99,2.75-7.03,6.79-7.03c4.53,0,6.72,3.81,6.46,7.9H77.77z M83.71,86.88
		c-0.33-1.85-1.13-2.83-2.91-2.83c-2.32,0-2.98,1.8-3.04,2.83H83.71z"/>
	<path class="st1" d="M89.01,81.65h3.47v1.7h0.05c0.87-1.42,2.32-2.06,3.96-2.06c4.17,0,6.05,3.37,6.05,7.15
		c0,3.55-1.96,6.87-5.84,6.87c-1.6,0-3.11-0.69-3.99-2.01h-0.05v6.33h-3.65V81.65z M98.89,88.34c0-2.11-0.85-4.3-3.19-4.3
		c-2.39,0-3.17,2.14-3.17,4.3c0,2.16,0.82,4.22,3.19,4.22C98.12,92.56,98.89,90.5,98.89,88.34z"/>
	<path class="st1" d="M107.23,89.19c0.1,2.32,1.24,3.37,3.27,3.37c1.47,0,2.65-0.9,2.88-1.72h3.22c-1.03,3.14-3.22,4.48-6.23,4.48
		c-4.19,0-6.79-2.88-6.79-7c0-3.99,2.75-7.03,6.79-7.03c4.53,0,6.72,3.81,6.46,7.9H107.23z M113.17,86.88
		c-0.33-1.85-1.13-2.83-2.91-2.83c-2.32,0-2.98,1.8-3.04,2.83H113.17z"/>
	<path class="st1" d="M118.47,81.65h3.47v1.85h0.08c0.93-1.49,2.52-2.21,4.07-2.21c3.89,0,4.86,2.19,4.86,5.48v8.18h-3.65v-7.51
		c0-2.19-0.64-3.27-2.34-3.27c-1.98,0-2.83,1.11-2.83,3.81v6.97h-3.65V81.65z"/>
	<path class="st1" d="M142.71,93.26h-0.05c-0.85,1.44-2.34,2.06-4.04,2.06c-4.01,0-5.97-3.45-5.97-7.13c0-3.58,1.98-6.9,5.89-6.9
		c1.57,0,3.11,0.67,3.96,1.98h-0.03h0.05v-6.69h3.65v18.37h-3.47V93.26z M139.52,84.05c-2.39,0-3.22,2.06-3.22,4.25
		c0,2.08,0.95,4.27,3.22,4.27c2.42,0,3.14-2.11,3.14-4.3C142.66,86.1,141.89,84.05,139.52,84.05z"/>
	<path class="st1" d="M151.43,89.19c0.1,2.32,1.24,3.37,3.27,3.37c1.47,0,2.65-0.9,2.88-1.72h3.22c-1.03,3.14-3.22,4.48-6.23,4.48
		c-4.19,0-6.79-2.88-6.79-7c0-3.99,2.75-7.03,6.79-7.03c4.53,0,6.72,3.81,6.46,7.9H151.43z M157.38,86.88
		c-0.33-1.85-1.13-2.83-2.91-2.83c-2.32,0-2.98,1.8-3.04,2.83H157.38z"/>
	<path class="st1" d="M162.68,81.65h3.47v1.85h0.08c0.93-1.49,2.52-2.21,4.07-2.21c3.89,0,4.86,2.19,4.86,5.48v8.18h-3.65v-7.51
		c0-2.19-0.64-3.27-2.34-3.27c-1.98,0-2.83,1.11-2.83,3.81v6.97h-3.65V81.65z"/>
	<path class="st1" d="M182.05,81.65h2.68v2.44h-2.68v6.59c0,1.24,0.31,1.54,1.54,1.54c0.39,0,0.75-0.03,1.13-0.1v2.86
		c-0.62,0.1-1.42,0.13-2.14,0.13c-2.24,0-4.19-0.51-4.19-3.17V84.1h-2.21v-2.44h2.21v-3.99h3.65V81.65z"/>
	<path class="st1" d="M186.07,76.58h3.65v18.37h-3.65V76.58z"/>
	<path class="st1" d="M198.65,96.63c-0.8,2.14-2.06,3.01-4.58,3.01c-0.75,0-1.49-0.05-2.24-0.13V96.5c0.69,0.05,1.42,0.15,2.14,0.13
		c1.26-0.13,1.67-1.44,1.26-2.5l-4.68-12.48h3.91l3.01,9.11h0.05l2.91-9.11h3.78L198.65,96.63z"/>
	<path class="st1" d="M218.02,81.29c4.19,0,6.9,2.78,6.9,7.03c0,4.22-2.7,7-6.9,7c-4.17,0-6.87-2.78-6.87-7
		C211.15,84.07,213.86,81.29,218.02,81.29z M218.02,92.56c2.5,0,3.24-2.14,3.24-4.25c0-2.14-0.75-4.27-3.24-4.27
		c-2.47,0-3.22,2.14-3.22,4.27C214.81,90.43,215.55,92.56,218.02,92.56z"/>
	<path class="st1" d="M226.26,81.65h3.47v2.47h0.05c0.67-1.67,2.47-2.83,4.25-2.83c0.26,0,0.57,0.05,0.8,0.13v3.4
		c-0.33-0.08-0.87-0.13-1.31-0.13c-2.68,0-3.6,1.93-3.6,4.27v6h-3.65V81.65z"/>
	<path class="st1" d="M248.54,94.11c0,2.19-0.77,5.89-6.9,5.89c-2.62,0-5.69-1.23-5.87-4.27h3.63c0.33,1.36,1.44,1.83,2.73,1.83
		c2.03,0,2.96-1.39,2.93-3.29v-1.75h-0.05c-0.8,1.39-2.39,2.06-3.99,2.06c-3.99,0-5.69-3.04-5.69-6.69c0-3.45,1.98-6.59,5.71-6.59
		c1.75,0,3.09,0.59,3.96,2.14h0.05v-1.78h3.47V94.11z M245.07,88.14c0-2.16-0.75-4.09-3.11-4.09c-2.06,0-2.96,1.8-2.96,3.78
		c0,1.9,0.72,3.99,2.96,3.99C244.04,91.82,245.07,90.04,245.07,88.14z"/>
	<path class="st1" d="M250.29,85.74c0.21-3.42,3.27-4.45,6.25-4.45c2.65,0,5.84,0.59,5.84,3.78V92c0,1.21,0.13,2.42,0.46,2.96h-3.71
		c-0.13-0.41-0.23-0.85-0.26-1.29c-1.16,1.21-2.86,1.65-4.48,1.65c-2.52,0-4.53-1.26-4.53-3.99c0-3.01,2.26-3.73,4.53-4.04
		c2.24-0.33,4.32-0.26,4.32-1.75c0-1.57-1.08-1.8-2.37-1.8c-1.39,0-2.29,0.57-2.42,2.01H250.29z M258.73,88.45
		c-0.62,0.54-1.9,0.57-3.04,0.77c-1.13,0.23-2.16,0.62-2.16,1.96c0,1.36,1.06,1.7,2.24,1.7c2.86,0,2.96-2.26,2.96-3.06V88.45z"/>
	<path class="st1" d="M264.7,81.65h3.47v1.85h0.08c0.93-1.49,2.52-2.21,4.07-2.21c3.89,0,4.86,2.19,4.86,5.48v8.18h-3.65v-7.51
		c0-2.19-0.64-3.27-2.34-3.27c-1.98,0-2.83,1.11-2.83,3.81v6.97h-3.65V81.65z"/>
	<path class="st1" d="M282.69,79.59h-3.65v-3.01h3.65V79.59z M279.03,81.65h3.65v13.3h-3.65V81.65z"/>
	<path class="st1" d="M284.23,92.2l6.92-7.8h-6.41v-2.75h11.22v2.75l-6.92,7.8h7.41v2.75h-12.22V92.2z"/>
	<path class="st1" d="M300.9,89.19c0.1,2.32,1.24,3.37,3.27,3.37c1.47,0,2.65-0.9,2.88-1.72h3.22c-1.03,3.14-3.22,4.48-6.23,4.48
		c-4.19,0-6.79-2.88-6.79-7c0-3.99,2.75-7.03,6.79-7.03c4.53,0,6.72,3.81,6.46,7.9H300.9z M306.85,86.88
		c-0.33-1.85-1.13-2.83-2.91-2.83c-2.32,0-2.98,1.8-3.04,2.83H306.85z"/>
	<path class="st1" d="M321.64,93.26h-0.05c-0.85,1.44-2.34,2.06-4.04,2.06c-4.01,0-5.97-3.45-5.97-7.13c0-3.58,1.98-6.9,5.89-6.9
		c1.57,0,3.11,0.67,3.96,1.98h-0.03h0.05v-6.69h3.65v18.37h-3.47V93.26z M318.45,84.05c-2.39,0-3.22,2.06-3.22,4.25
		c0,2.08,0.95,4.27,3.22,4.27c2.42,0,3.14-2.11,3.14-4.3C321.59,86.1,320.82,84.05,318.45,84.05z"/>
	<path class="st1" d="M338.44,79.98h-5.51v-3.4h15.05v3.4h-5.51v14.98h-4.04V79.98z"/>
	<path class="st1" d="M349.59,76.58h13.74v3.4h-9.7v3.94h8.9v3.14h-8.9v4.5h9.91v3.4h-13.95V76.58z"/>
	<path class="st1" d="M365.23,76.58h7.93c4.76,0,8.34,2.99,8.34,9.08c0,5.33-2.73,9.29-8.34,9.29h-7.93V76.58z M369.27,91.56h3.6
		c2.34,0,4.58-1.44,4.58-5.51c0-3.71-1.29-6.07-5.3-6.07h-2.88V91.56z"/>
	<path class="st1" d="M393.05,89.19c0.1,2.32,1.24,3.37,3.27,3.37c1.47,0,2.65-0.9,2.88-1.72h3.22c-1.03,3.14-3.22,4.48-6.23,4.48
		c-4.19,0-6.79-2.88-6.79-7c0-3.99,2.75-7.03,6.79-7.03c4.53,0,6.72,3.81,6.46,7.9H393.05z M398.99,86.88
		c-0.33-1.85-1.13-2.83-2.91-2.83c-2.32,0-2.98,1.8-3.04,2.83H398.99z"/>
	<path class="st1" d="M411.14,94.96h-4.07l-4.55-13.3h3.83l2.8,9.08h0.05l2.8-9.08h3.63L411.14,94.96z"/>
	<path class="st1" d="M419.14,89.19c0.1,2.32,1.24,3.37,3.27,3.37c1.47,0,2.65-0.9,2.88-1.72h3.22c-1.03,3.14-3.22,4.48-6.23,4.48
		c-4.19,0-6.79-2.88-6.79-7c0-3.99,2.75-7.03,6.79-7.03c4.53,0,6.72,3.81,6.46,7.9H419.14z M425.08,86.88
		c-0.33-1.85-1.13-2.83-2.91-2.83c-2.32,0-2.98,1.8-3.04,2.83H425.08z"/>
	<path class="st1" d="M430.38,81.65h3.47v1.85h0.08c0.93-1.49,2.52-2.21,4.07-2.21c3.89,0,4.86,2.19,4.86,5.48v8.18h-3.65v-7.51
		c0-2.19-0.64-3.27-2.34-3.27c-1.98,0-2.83,1.11-2.83,3.81v6.97h-3.65V81.65z"/>
	<path class="st1" d="M449.76,81.65h2.68v2.44h-2.68v6.59c0,1.24,0.31,1.54,1.54,1.54c0.39,0,0.75-0.03,1.13-0.1v2.86
		c-0.62,0.1-1.41,0.13-2.14,0.13c-2.24,0-4.19-0.51-4.19-3.17V84.1h-2.21v-2.44h2.21v-3.99h3.65V81.65z"/>
	<g>
		<g>
			<path class="st0" d="M17.14,15.8H0V0.12h53.12V15.8H35.98v45.5H17.14V15.8z"/>
			<path class="st0" d="M56.05,0.12h51.57V15.8H74.89v7.62h32.72v14.57H74.89v7.62h32.73v15.68H56.05V0.12z"/>
			<path class="st0" d="M110.78,0.12h30.93c20.39,0,27.59,15.08,27.59,30.5c0,18.77-9.94,30.68-31.27,30.68h-27.25V0.12z
				 M129.63,45.61H137c11.74,0,13.46-9.51,13.46-15.26c0-3.85-1.21-14.56-14.83-14.56h-6V45.61z"/>
		</g>
		<g>
			<g>
				<path class="st0" d="M196.39,37.72l-5.75-9.53l-5.61,9.53h-13.81l13.11-19.28L171.71,0h13.81l5.12,9.12L195.9,0h13.81
					l-12.62,18.44l13.11,19.28H196.39z"/>
			</g>
		</g>
	</g>
	<g>
		<path class="st1" d="M278.34,6.24v7.72h-56.9V6.24h23.73c-0.38-1.28-0.89-2.62-1.28-3.76l9.7-2.36c0.77,1.85,1.79,4.15,2.55,6.12
			H278.34z M277.25,53.19c0,3.89-0.96,5.55-3.76,6.63c-2.74,0.96-6.51,1.02-11.23,0.96c-0.32-1.47-1.02-3.25-1.79-4.85h-16.52v2.3
			h-8.55V41.01h28.39v13.33c1.28,0,2.36-0.06,2.74-0.06c0.96,0,1.34-0.26,1.34-1.15V39.48h-35.98v21.82h-8.99V32.01h54.35V53.19z
			 M271.57,30.04h-42.29V15.75h42.29V30.04z M261.75,21.81h-23.22v2.17h23.22V21.81z M255.69,47.26h-11.74v2.42h11.74V47.26z"/>
		<path class="st1" d="M295.36,43.11c-1.53,4.08-4.02,8.55-6.44,11.29c-1.34-1.15-4.21-3.25-5.87-4.27c2.23-2.3,4.15-5.68,5.23-8.87
			L295.36,43.11z M304.04,39.99v12.25c0,3.57-0.57,5.55-2.81,6.76c-2.23,1.21-4.98,1.34-8.61,1.34c-0.25-2.17-1.34-5.36-2.36-7.46
			c1.72,0.06,3.83,0.06,4.53,0.06c0.7,0,0.89-0.19,0.89-0.89V39.99h-11.23v-7.72h11.23v-3.89h-11.67v-7.53h5.49
			c-0.26-1.66-0.83-3.76-1.53-5.36l4.91-1.21h-7.85V6.82h10.14c-0.45-1.59-1.02-3.25-1.53-4.66l8.23-1.91
			c0.83,1.98,1.72,4.47,2.42,6.57h9.76v7.46h-7.15l4.85,0.89c-0.96,2.11-1.79,4.02-2.55,5.68h5.87v7.53h-11.04v3.89h9.76v7.72
			H304.04z M295.56,14.28c0.83,1.85,1.53,4.27,1.79,5.93l-2.36,0.64h6c0.77-1.98,1.72-4.53,2.23-6.57H295.56z M343.97,30.1h-5.36
			v30.88h-8.99V30.1h-4.34c0,9.44-0.89,22.52-6.12,30.3c-1.47-1.59-5.23-4.47-7.14-5.49c1.02-1.59,1.79-3.38,2.42-5.23L309.14,53
			c-1.02-2.42-3.13-6.32-4.85-9.12l5.93-3.38c1.66,2.42,3.51,5.42,4.66,7.66c1.59-5.93,1.79-12.82,1.79-18.5V6.75
			c6.95-1.34,14.42-3.51,19.14-5.81l7.02,6.83c-5.23,2.11-11.55,3.76-17.54,4.91v8.87h18.69V30.1z"/>
		<path class="st1" d="M405.15,8.67c-1.85,6.76-4.72,12.44-8.48,17.22c3.51,2.49,7.59,4.59,12.38,5.87
			c-1.47,1.4-3.51,4.08-4.85,6.25v22.9h-8.87v-1.85h-9.76v2.04h-8.48V40.5l-0.13,0.06c-0.7-1.4-1.91-3.19-3.19-4.78v3.76h-6.44v6.83
			c2.36-0.51,4.72-1.02,7.02-1.53l0.89,8.17c-9.19,2.23-19.14,4.53-26.73,6.25l-1.53-8.87l2.55-0.45V28.7h7.46v19.84l2.17-0.45V25
			h-8.87V2.92h22.84v15.18c4.4-4.34,8.1-10.78,10.08-17.48l8.8,2.17c-0.38,1.21-0.83,2.49-1.34,3.7h7.02l1.59-0.32L405.15,8.67z
			 M358.26,17.15h6.38v-6.38h-6.38V17.15z M373.76,32.84c4.02-1.66,7.72-4.02,10.97-6.89c-1.02-1.28-1.98-2.62-2.81-3.96
			c-0.83,1.08-1.72,2.11-2.62,3c-1.34-1.4-4.15-3.83-6.19-5.36V25h-5.81v6.51h6.44V32.84z M397.81,37.12
			c-2.62-1.4-4.98-3.13-7.14-4.91c-2.1,1.79-4.4,3.44-6.89,4.91H397.81z M395.32,51.15v-6.32h-9.76v6.32H395.32z M387.03,14.28
			l-0.45,0.77c1.02,1.66,2.23,3.32,3.64,4.98c1.34-1.85,2.49-3.7,3.51-5.74H387.03z"/>
	</g>
</g>
</svg>
