<svg id="图层_1" data-name="图层 1" xmlns="http://www.w3.org/2000/svg" viewBox="0 0 640 160"><defs><style>.cls-1{fill:#e50012;}.cls-2{fill:#040000;}</style></defs><title>logo</title><path class="cls-1" d="M26.82,57.14H0V32.61H83.11V57.14H56.3v71.19H26.82Z"/><path class="cls-1" d="M87.69,32.61h80.68V57.14H117.18V69.07h51.19v22.8H117.18V103.8h51.21v24.53H87.69Z"/><path class="cls-1" d="M173.34,32.61h48.39c31.9,0,43.18,23.59,43.18,47.72,0,29.37-15.55,48-48.94,48H173.34Zm29.49,71.19h11.53c18.37,0,21.06-14.89,21.06-23.88,0-6-1.89-22.78-23.21-22.78h-9.38Z"/><path class="cls-1" d="M307.28,91.44l-9-14.92-8.78,14.92h-21.6l20.51-30.16L268.67,32.42h21.61l8,14.27,8.23-14.27h21.61L308.38,61.28,328.9,91.44Z"/><path class="cls-2" d="M435.5,42.19V54.27h-89V42.19h37.13c-.59-2-1.39-4.09-2-5.89l15.17-3.69c1.2,2.89,2.79,6.49,4,9.58Zm-1.7,73.46c0,6.09-1.5,8.69-5.89,10.38-4.29,1.5-10.18,1.6-17.57,1.5a37.12,37.12,0,0,0-2.79-7.59H381.7v3.6H368.32V96.59h44.42v20.86c2,0,3.69-.1,4.29-.1,1.5,0,2.1-.4,2.1-1.8V94.19h-56.3v34.14H348.76V82.51h85Zm-8.88-36.23H358.74V57.06h66.18ZM409.55,66.54H373.21v3.4h36.34Zm-9.49,39.83H381.7v3.79h18.36Z"/><path class="cls-2" d="M462.14,99.88c-2.39,6.39-6.29,13.38-10.08,17.67a95.58,95.58,0,0,0-9.18-6.69A38.63,38.63,0,0,0,451.06,97ZM475.72,95v19.16c0,5.59-.9,8.69-4.4,10.58s-7.78,2.1-13.47,2.1a43.25,43.25,0,0,0-3.69-11.68c2.69.1,6,.1,7.08.1s1.4-.3,1.4-1.4V95H445.07V82.91h17.57V76.82H444.37V65.05H453a36.37,36.37,0,0,0-2.4-8.39l7.69-1.89H446V43.09h15.87c-.7-2.5-1.6-5.09-2.39-7.29l12.87-3c1.3,3.09,2.7,7,3.8,10.28h15.27V54.77H480.21l7.58,1.39c-1.49,3.3-2.79,6.29-4,8.89H493V76.82H475.72v6.09H491V95ZM462.44,54.77a40.34,40.34,0,0,1,2.8,9.28l-3.7,1h9.38a96.5,96.5,0,0,0,3.5-10.28ZM538.2,79.52h-8.39v48.31H515.74V79.52H509c0,14.77-1.39,35.23-9.58,47.41a57.88,57.88,0,0,0-11.18-8.58,37.75,37.75,0,0,0,3.79-8.19l-8.28,5.19a127.6,127.6,0,0,0-7.58-14.27l9.28-5.29a122.83,122.83,0,0,1,7.28,12c2.5-9.29,2.8-20.07,2.8-28.95V43c10.88-2.1,22.56-5.49,29.94-9.08l11,10.68A154.07,154.07,0,0,1,509,52.27V66.15H538.2Z"/><path class="cls-2" d="M633.91,46a74.74,74.74,0,0,1-13.27,27A59.87,59.87,0,0,0,640,82.11a57.28,57.28,0,0,0-7.59,9.79v35.83H618.54v-2.9H603.27V128H590V95.79l-.2.1a45.62,45.62,0,0,0-5-7.49v5.89H574.72V105l11-2.39,1.4,12.77c-14.37,3.5-29.94,7.09-41.82,9.78l-2.4-13.87,4-.7V77.32h11.67v31.05l3.4-.7V71.53H548.07V37h35.74V60.76c6.88-6.79,12.67-16.87,15.77-27.35l13.77,3.39c-.6,1.9-1.3,3.89-2.1,5.79h11l2.5-.5ZM560.55,59.26h10v-10h-10ZM584.8,83.81A61.39,61.39,0,0,0,602,73a64,64,0,0,1-4.39-6.19,46.28,46.28,0,0,1-4.09,4.69,98.31,98.31,0,0,0-9.68-8.38v8.38h-9.09V81.72H584.8Zm37.63,6.69a69.48,69.48,0,0,1-11.18-7.69,76.91,76.91,0,0,1-10.78,7.69Zm-3.89,22v-9.88H603.27v9.88Zm-13-57.69L604.87,56a63,63,0,0,0,5.69,7.79,64.38,64.38,0,0,0,5.49-9Z"/></svg>